<svg width="324" height="48" viewBox="0 0 324 48" fill="none" xmlns="http://www.w3.org/2000/svg">
<path d="M28.6513 0C33.7139 0 38.2019 0.773326 42.1144 2.32056C46.0726 3.86779 49.2714 6.02545 51.7108 8.7947C54.1502 11.5228 55.6 14.7187 56.0603 18.3836H49.5015C48.9497 15.6961 47.7526 13.3755 45.9114 11.4213C44.0703 9.42599 41.6773 7.89905 38.7312 6.84051C35.7857 5.74081 32.4026 5.19125 28.5823 5.19125C24.118 5.19125 20.2288 5.94429 16.9146 7.45152C13.6468 8.95759 11.1153 11.0955 9.32049 13.8636C7.52572 16.6329 6.62718 19.9105 6.62718 23.6972C6.62718 27.4432 7.52514 30.7006 9.32049 33.4692C11.1153 36.2379 13.6468 38.3956 16.9146 39.9434C20.2288 41.4494 24.1174 42.2031 28.5823 42.2031C32.4026 42.2031 35.7863 41.6738 38.7312 40.6153C41.6773 39.5161 44.0703 37.9892 45.9114 36.0344C47.7526 34.0397 48.9497 31.6779 49.5015 28.9499H56.0603C55.6 32.5736 54.1502 35.7904 51.7108 38.5996C49.2714 41.3683 46.0726 43.5265 42.1144 45.0738C38.2019 46.621 33.7145 47.3943 28.6513 47.3943C22.9441 47.3943 17.9274 46.3966 13.601 44.4013C9.32049 42.4065 5.98371 39.6373 3.59011 36.0953C1.19651 32.5121 0 28.3794 0 23.6972C0 18.9737 1.19651 14.8416 3.59011 11.299C5.98313 7.75703 9.32049 4.98778 13.601 2.99301C17.9274 0.997671 22.9447 0.000579704 28.6513 0.000579704V0Z" fill="#141414"/>
<path d="M323.997 46.5999H316.956L310.749 35.24H278.648L272.424 46.5999H265.383L290.859 0.793945H298.522L323.997 46.5999ZM281.325 30.3542H308.08L294.722 5.90288L281.325 30.3542Z" fill="#141414"/>
<path d="M226.59 41.1443L250.031 0.793945H259.836V46.5999H253.622V6.53302L230.01 46.5999H223.106L199.495 6.58867V46.5999H193.281V0.793945H203.085L226.59 41.1443Z" fill="#141414"/>
<path d="M187.733 5.80201H150.757V21.2535H187.698V26.1398H150.757V41.5924H187.698V46.5999H144.445V0.793945H187.733V5.80201Z" fill="#141414"/>
<path fill-rule="evenodd" clip-rule="evenodd" d="M138.905 40.3887L112.447 26.9077L106.351 30.0137L138.904 46.6002V40.3887H138.905ZM61.6094 40.3887L94.1621 23.8022L61.6094 7.21568V1.00415L100.257 20.6961L138.905 1.00415V7.21568L61.6094 46.5996V40.3881V40.3887Z" fill="#141414"/>
</svg>
